<mxfile host="app.diagrams.net" agent="Mozilla/5.0 (X11; Linux x86_64; rv:140.0) Gecko/20100101 Firefox/140.0" version="28.2.4">
  <diagram name="Page-1" id="MdtQHWE365CePKhpas0K">
    <mxGraphModel dx="548" dy="398" grid="1" gridSize="10" guides="1" tooltips="1" connect="1" arrows="1" fold="1" page="1" pageScale="1" pageWidth="827" pageHeight="1169" math="0" shadow="0">
      <root>
        <mxCell id="0" />
        <mxCell id="1" parent="0" />
        <mxCell id="DRfZeKq4RXIR7uO2mwEg-10" value="" style="group" vertex="1" connectable="0" parent="1">
          <mxGeometry x="144" y="485" width="540" height="200" as="geometry" />
        </mxCell>
        <mxCell id="DRfZeKq4RXIR7uO2mwEg-7" style="edgeStyle=none;curved=1;rounded=0;orthogonalLoop=1;jettySize=auto;html=1;exitX=1;exitY=1;exitDx=0;exitDy=0;fontSize=12;startSize=8;endSize=8;entryX=1;entryY=0;entryDx=0;entryDy=0;endArrow=none;endFill=0;" edge="1" parent="DRfZeKq4RXIR7uO2mwEg-10" source="qYFslLlZFKgtKI9ZPii0-1" target="DRfZeKq4RXIR7uO2mwEg-6">
          <mxGeometry relative="1" as="geometry">
            <mxPoint x="400" y="130" as="targetPoint" />
          </mxGeometry>
        </mxCell>
        <mxCell id="DRfZeKq4RXIR7uO2mwEg-8" style="edgeStyle=none;curved=1;rounded=0;orthogonalLoop=1;jettySize=auto;html=1;exitX=0;exitY=1;exitDx=0;exitDy=0;entryX=0;entryY=0;entryDx=0;entryDy=0;fontSize=12;startSize=8;endSize=8;endArrow=none;endFill=0;" edge="1" parent="DRfZeKq4RXIR7uO2mwEg-10" source="qYFslLlZFKgtKI9ZPii0-1" target="DRfZeKq4RXIR7uO2mwEg-5">
          <mxGeometry relative="1" as="geometry">
            <mxPoint x="-60" y="140" as="targetPoint" />
          </mxGeometry>
        </mxCell>
        <mxCell id="qYFslLlZFKgtKI9ZPii0-1" value="&lt;div&gt;cabecera&lt;/div&gt;&lt;div&gt;UDP&lt;/div&gt;" style="rounded=0;whiteSpace=wrap;html=1;" parent="DRfZeKq4RXIR7uO2mwEg-10" vertex="1">
          <mxGeometry x="60" width="120" height="60" as="geometry" />
        </mxCell>
        <mxCell id="DRfZeKq4RXIR7uO2mwEg-1" value="&lt;div&gt;5290 0120 0001 0000 0000 0001 0377 7777 0c61 6e67 656c&lt;/div&gt;&lt;div&gt;6d65 6c63 686f 7203 7072 6f00 0001 0001 0000 2904 d000&lt;/div&gt;&lt;div&gt;0000 0000 0c00 0a00 0876 7b0b aa1a 5b96 8c&lt;/div&gt;" style="rounded=0;whiteSpace=wrap;html=1;fontColor=light-dark(#000000,#FFFF00);" vertex="1" parent="DRfZeKq4RXIR7uO2mwEg-10">
          <mxGeometry x="180" width="360" height="60" as="geometry" />
        </mxCell>
        <mxCell id="DRfZeKq4RXIR7uO2mwEg-5" value="&lt;div&gt;bb71&lt;/div&gt;&lt;div&gt;(47985)&lt;/div&gt;" style="rounded=0;whiteSpace=wrap;html=1;fontColor=light-dark(#000000,#00FFFF);" vertex="1" parent="DRfZeKq4RXIR7uO2mwEg-10">
          <mxGeometry y="140" width="120" height="60" as="geometry" />
        </mxCell>
        <mxCell id="DRfZeKq4RXIR7uO2mwEg-6" value="&lt;div&gt;0035&lt;/div&gt;&lt;div&gt;(53)&lt;/div&gt;" style="rounded=0;whiteSpace=wrap;html=1;fontColor=light-dark(#000000,#FF00FF);" vertex="1" parent="DRfZeKq4RXIR7uO2mwEg-10">
          <mxGeometry x="120" y="140" width="120" height="60" as="geometry" />
        </mxCell>
      </root>
    </mxGraphModel>
  </diagram>
</mxfile>
